<?xml version="1.0" encoding="UTF-8" standalone="no"?>
<!DOCTYPE svg PUBLIC "-//W3C//DTD SVG 1.1//EN" "http://www.w3.org/Graphics/SVG/1.1/DTD/svg11.dtd">
<svg xmlns="http://www.w3.org/2000/svg" version="1.1" viewBox="0.00 0.00 1152.00 896.00">
<g stroke-width="2.00" fill="none" stroke-linecap="butt">
<path stroke="#808080" vector-effect="non-scaling-stroke" d="
  M 698.15 407.31
  A 1.75 1.74 52.9 0 0 700.42 407.63
  Q 707.73 402.90 708.11 394.71
  C 708.29 390.66 706.67 386.63 701.83 386.73
  C 695.11 386.88 694.50 397.90 701.67 398.95
  A 1.53 1.53 0.0 0 1 702.44 401.62
  L 698.26 405.18
  A 1.47 1.46 -41.0 0 0 698.11 407.26
  L 698.15 407.31"
/>
<path stroke="#808080" vector-effect="non-scaling-stroke" d="
  M 541.14 425.35
  L 541.14 456.93
  A 1.60 1.59 -15.0 0 1 540.34 458.31
  C 532.28 462.92 523.21 462.50 517.09 455.19
  Q 512.02 449.14 510.50 443.25
  Q 506.95 429.46 509.67 412.39
  C 510.88 404.82 513.99 400.53 519.04 395.04
  C 524.92 388.65 535.08 390.21 541.32 395.00
  Q 542.06 395.58 544.99 399.04
  A 1.37 1.37 0.0 0 0 547.00 399.12
  L 548.35 397.76
  A 1.75 1.74 -41.9 0 0 548.48 395.43
  C 541.92 387.31 528.55 384.98 518.92 388.49
  Q 512.74 390.74 512.10 391.12
  Q 494.98 401.47 492.90 421.47
  C 491.88 431.25 494.77 442.64 500.56 450.45
  Q 502.36 452.89 506.26 456.33
  Q 510.95 460.47 512.57 461.13
  C 519.48 463.97 526.38 465.46 533.54 464.29
  C 540.70 463.12 543.60 462.29 548.90 459.23
  A 1.21 1.20 55.7 0 1 550.44 459.53
  L 553.04 462.81
  A 1.61 1.61 0.0 0 0 555.88 461.52
  C 554.21 452.29 554.85 439.50 555.06 429.00
  Q 555.09 427.38 554.63 425.32
  A 0.69 0.68 -6.3 0 0 553.96 424.79
  L 541.70 424.79
  A 0.56 0.56 0.0 0 0 541.14 425.35"
/>
<path stroke="#808080" vector-effect="non-scaling-stroke" d="
  M 798.21 399.30
  Q 799.49 399.16 800.15 397.37
  A 1.03 1.03 0.0 0 0 800.07 396.47
  Q 798.51 393.89 796.48 392.47
  Q 784.74 384.27 771.20 388.39
  Q 765.28 390.19 761.97 393.40
  C 756.39 398.81 753.14 407.60 756.14 415.04
  Q 757.53 418.47 760.23 422.01
  C 762.68 425.22 764.81 426.27 768.97 428.54
  Q 775.27 431.98 782.25 434.77
  C 788.63 437.32 793.32 441.15 793.20 448.72
  Q 793.12 454.26 789.51 457.24
  C 784.44 461.42 778.65 461.47 772.20 460.69
  C 767.02 460.06 762.53 457.34 759.73 452.85
  Q 759.20 451.99 758.17 450.43
  A 0.87 0.87 0.0 0 0 757.28 450.06
  Q 755.61 450.41 754.53 451.75
  A 1.16 1.15 -36.3 0 0 754.35 452.86
  Q 755.23 455.32 756.67 456.64
  Q 766.68 465.75 780.32 464.57
  C 786.83 464.00 792.20 462.71 796.90 458.54
  Q 800.53 455.33 802.37 452.24
  C 805.58 446.85 805.28 437.69 802.18 432.57
  C 797.42 424.71 788.69 420.28 779.85 417.30
  C 772.60 414.86 765.60 410.01 766.41 401.78
  Q 766.97 396.12 770.34 393.07
  Q 771.34 392.16 774.47 391.58
  Q 788.90 388.90 797.13 398.86
  A 1.23 1.23 0.0 0 0 798.21 399.30"
/>
<path stroke="#808080" vector-effect="non-scaling-stroke" d="
  M 402.38 392.17
  Q 402.19 393.48 401.34 394.83
  Q 398.59 399.23 386.79 418.60
  Q 384.10 423.02 383.03 425.18
  C 380.14 431.02 376.57 436.23 373.62 441.60
  Q 367.89 452.10 365.60 455.86
  Q 363.84 458.73 362.89 461.70
  A 1.32 1.31 -81.1 0 0 364.14 463.42
  L 418.39 463.42
  A 1.34 1.34 0.0 0 0 419.73 462.08
  L 419.73 461.36
  A 1.33 1.33 0.0 0 0 418.40 460.03
  L 380.98 460.03
  A 0.71 0.70 -79.9 0 1 380.32 459.08
  Q 381.49 455.94 382.11 454.87
  Q 386.84 446.72 391.66 437.86
  C 394.44 432.76 397.50 428.39 400.15 423.42
  C 404.08 416.05 407.22 411.19 411.72 403.00
  C 413.68 399.46 417.14 394.97 418.79 391.04
  A 2.51 2.15 -59.4 0 0 418.31 388.34
  Q 417.73 387.82 416.43 387.85
  Q 389.68 388.54 367.69 387.89
  A 1.76 1.76 0.0 0 0 365.88 389.80
  L 365.93 390.23
  A 1.49 1.49 0.0 0 0 367.41 391.58
  L 401.87 391.58
  A 0.52 0.51 4.3 0 1 402.38 392.17"
/>
<path stroke="#808080" vector-effect="non-scaling-stroke" d="
  M 737.8160 389.0580
  A 1.21 1.21 0.0 0 0 736.6039 387.8501
  L 725.2039 387.8700
  A 1.21 1.21 0.0 0 0 723.9960 389.0821
  L 724.1240 462.3820
  A 1.21 1.21 0.0 0 0 725.3361 463.5899
  L 736.7361 463.5700
  A 1.21 1.21 0.0 0 0 737.9440 462.3579
  L 737.8160 389.0580"
/>
<path stroke="#808080" vector-effect="non-scaling-stroke" d="
  M 476.17 423.26
  A 0.84 0.84 0.0 0 0 475.33 422.42
  L 448.90 422.42
  A 0.84 0.84 0.0 0 1 448.06 421.58
  L 448.06 392.63
  A 0.84 0.84 0.0 0 1 448.90 391.79
  L 480.54 391.79
  A 0.84 0.84 0.0 0 0 481.38 390.95
  L 481.38 389.12
  A 0.84 0.84 0.0 0 0 480.54 388.28
  L 435.54 388.28
  A 0.84 0.84 0.0 0 0 434.70 389.12
  L 434.70 462.66
  A 0.84 0.84 0.0 0 0 435.54 463.50
  L 481.15 463.50
  A 0.84 0.84 0.0 0 0 481.99 462.66
  L 481.99 460.75
  A 0.84 0.84 0.0 0 0 481.15 459.91
  L 449.09 459.91
  A 0.84 0.84 0.0 0 1 448.25 459.07
  L 448.25 427.05
  A 0.84 0.84 0.0 0 1 449.09 426.21
  L 475.33 426.21
  A 0.84 0.84 0.0 0 0 476.17 425.37
  L 476.17 423.26"
/>
<path stroke="#808080" vector-effect="non-scaling-stroke" d="
  M 586.73 426.55
  L 612.02 426.55
  A 0.99 0.99 0.0 0 0 613.01 425.56
  L 613.01 423.35
  A 0.81 0.81 0.0 0 0 612.20 422.54
  L 586.57 422.54
  A 1.03 1.03 0.0 0 1 585.54 421.51
  L 585.54 392.54
  A 0.99 0.98 -88.1 0 1 586.59 391.55
  Q 600.92 392.37 616.81 391.45
  A 0.94 0.93 88.4 0 0 617.69 390.51
  L 617.69 388.99
  A 0.83 0.83 0.0 0 0 616.86 388.16
  Q 599.54 388.01 583.08 388.54
  C 579.61 388.66 576.59 388.40 572.79 388.15
  A 1.31 1.31 0.0 0 0 571.40 389.46
  L 571.40 462.03
  A 1.40 1.40 0.0 0 0 572.80 463.43
  L 617.66 463.43
  A 1.48 1.48 0.0 0 0 619.14 461.95
  L 619.14 461.35
  A 1.53 1.53 0.0 0 0 617.61 459.82
  L 586.51 459.82
  A 0.92 0.91 90.0 0 1 585.60 458.90
  L 585.60 427.69
  A 1.14 1.13 -90.0 0 1 586.73 426.55"
/>
<path stroke="#808080" vector-effect="non-scaling-stroke" d="
  M 686.94 389.01
  A 0.83 0.83 0.0 0 0 686.11 388.18
  L 628.56 388.18
  A 0.83 0.83 0.0 0 0 627.73 389.01
  L 627.73 390.87
  A 0.83 0.83 0.0 0 0 628.56 391.70
  L 649.41 391.70
  A 0.83 0.83 0.0 0 1 650.24 392.53
  L 650.24 462.78
  A 0.83 0.83 0.0 0 0 651.07 463.61
  L 663.56 463.61
  A 0.83 0.83 0.0 0 0 664.39 462.78
  L 664.39 392.59
  A 0.83 0.83 0.0 0 1 665.22 391.76
  L 686.11 391.76
  A 0.83 0.83 0.0 0 0 686.94 390.93
  L 686.94 389.01"
/>
</g>
<path fill="#000000" d="
  M 1152.00 0.00
  L 1152.00 896.00
  L 0.00 896.00
  L 0.00 0.00
  L 1152.00 0.00
  Z
  M 698.15 407.31
  A 1.75 1.74 52.9 0 0 700.42 407.63
  Q 707.73 402.90 708.11 394.71
  C 708.29 390.66 706.67 386.63 701.83 386.73
  C 695.11 386.88 694.50 397.90 701.67 398.95
  A 1.53 1.53 0.0 0 1 702.44 401.62
  L 698.26 405.18
  A 1.47 1.46 -41.0 0 0 698.11 407.26
  L 698.15 407.31
  Z
  M 541.14 425.35
  L 541.14 456.93
  A 1.60 1.59 -15.0 0 1 540.34 458.31
  C 532.28 462.92 523.21 462.50 517.09 455.19
  Q 512.02 449.14 510.50 443.25
  Q 506.95 429.46 509.67 412.39
  C 510.88 404.82 513.99 400.53 519.04 395.04
  C 524.92 388.65 535.08 390.21 541.32 395.00
  Q 542.06 395.58 544.99 399.04
  A 1.37 1.37 0.0 0 0 547.00 399.12
  L 548.35 397.76
  A 1.75 1.74 -41.9 0 0 548.48 395.43
  C 541.92 387.31 528.55 384.98 518.92 388.49
  Q 512.74 390.74 512.10 391.12
  Q 494.98 401.47 492.90 421.47
  C 491.88 431.25 494.77 442.64 500.56 450.45
  Q 502.36 452.89 506.26 456.33
  Q 510.95 460.47 512.57 461.13
  C 519.48 463.97 526.38 465.46 533.54 464.29
  C 540.70 463.12 543.60 462.29 548.90 459.23
  A 1.21 1.20 55.7 0 1 550.44 459.53
  L 553.04 462.81
  A 1.61 1.61 0.0 0 0 555.88 461.52
  C 554.21 452.29 554.85 439.50 555.06 429.00
  Q 555.09 427.38 554.63 425.32
  A 0.69 0.68 -6.3 0 0 553.96 424.79
  L 541.70 424.79
  A 0.56 0.56 0.0 0 0 541.14 425.35
  Z
  M 798.21 399.30
  Q 799.49 399.16 800.15 397.37
  A 1.03 1.03 0.0 0 0 800.07 396.47
  Q 798.51 393.89 796.48 392.47
  Q 784.74 384.27 771.20 388.39
  Q 765.28 390.19 761.97 393.40
  C 756.39 398.81 753.14 407.60 756.14 415.04
  Q 757.53 418.47 760.23 422.01
  C 762.68 425.22 764.81 426.27 768.97 428.54
  Q 775.27 431.98 782.25 434.77
  C 788.63 437.32 793.32 441.15 793.20 448.72
  Q 793.12 454.26 789.51 457.24
  C 784.44 461.42 778.65 461.47 772.20 460.69
  C 767.02 460.06 762.53 457.34 759.73 452.85
  Q 759.20 451.99 758.17 450.43
  A 0.87 0.87 0.0 0 0 757.28 450.06
  Q 755.61 450.41 754.53 451.75
  A 1.16 1.15 -36.3 0 0 754.35 452.86
  Q 755.23 455.32 756.67 456.64
  Q 766.68 465.75 780.32 464.57
  C 786.83 464.00 792.20 462.71 796.90 458.54
  Q 800.53 455.33 802.37 452.24
  C 805.58 446.85 805.28 437.69 802.18 432.57
  C 797.42 424.71 788.69 420.28 779.85 417.30
  C 772.60 414.86 765.60 410.01 766.41 401.78
  Q 766.97 396.12 770.34 393.07
  Q 771.34 392.16 774.47 391.58
  Q 788.90 388.90 797.13 398.86
  A 1.23 1.23 0.0 0 0 798.21 399.30
  Z
  M 402.38 392.17
  Q 402.19 393.48 401.34 394.83
  Q 398.59 399.23 386.79 418.60
  Q 384.10 423.02 383.03 425.18
  C 380.14 431.02 376.57 436.23 373.62 441.60
  Q 367.89 452.10 365.60 455.86
  Q 363.84 458.73 362.89 461.70
  A 1.32 1.31 -81.1 0 0 364.14 463.42
  L 418.39 463.42
  A 1.34 1.34 0.0 0 0 419.73 462.08
  L 419.73 461.36
  A 1.33 1.33 0.0 0 0 418.40 460.03
  L 380.98 460.03
  A 0.71 0.70 -79.9 0 1 380.32 459.08
  Q 381.49 455.94 382.11 454.87
  Q 386.84 446.72 391.66 437.86
  C 394.44 432.76 397.50 428.39 400.15 423.42
  C 404.08 416.05 407.22 411.19 411.72 403.00
  C 413.68 399.46 417.14 394.97 418.79 391.04
  A 2.51 2.15 -59.4 0 0 418.31 388.34
  Q 417.73 387.82 416.43 387.85
  Q 389.68 388.54 367.69 387.89
  A 1.76 1.76 0.0 0 0 365.88 389.80
  L 365.93 390.23
  A 1.49 1.49 0.0 0 0 367.41 391.58
  L 401.87 391.58
  A 0.52 0.51 4.3 0 1 402.38 392.17
  Z
  M 737.8160 389.0580
  A 1.21 1.21 0.0 0 0 736.6039 387.8501
  L 725.2039 387.8700
  A 1.21 1.21 0.0 0 0 723.9960 389.0821
  L 724.1240 462.3820
  A 1.21 1.21 0.0 0 0 725.3361 463.5899
  L 736.7361 463.5700
  A 1.21 1.21 0.0 0 0 737.9440 462.3579
  L 737.8160 389.0580
  Z
  M 476.17 423.26
  A 0.84 0.84 0.0 0 0 475.33 422.42
  L 448.90 422.42
  A 0.84 0.84 0.0 0 1 448.06 421.58
  L 448.06 392.63
  A 0.84 0.84 0.0 0 1 448.90 391.79
  L 480.54 391.79
  A 0.84 0.84 0.0 0 0 481.38 390.95
  L 481.38 389.12
  A 0.84 0.84 0.0 0 0 480.54 388.28
  L 435.54 388.28
  A 0.84 0.84 0.0 0 0 434.70 389.12
  L 434.70 462.66
  A 0.84 0.84 0.0 0 0 435.54 463.50
  L 481.15 463.50
  A 0.84 0.84 0.0 0 0 481.99 462.66
  L 481.99 460.75
  A 0.84 0.84 0.0 0 0 481.15 459.91
  L 449.09 459.91
  A 0.84 0.84 0.0 0 1 448.25 459.07
  L 448.25 427.05
  A 0.84 0.84 0.0 0 1 449.09 426.21
  L 475.33 426.21
  A 0.84 0.84 0.0 0 0 476.17 425.37
  L 476.17 423.26
  Z
  M 586.73 426.55
  L 612.02 426.55
  A 0.99 0.99 0.0 0 0 613.01 425.56
  L 613.01 423.35
  A 0.81 0.81 0.0 0 0 612.20 422.54
  L 586.57 422.54
  A 1.03 1.03 0.0 0 1 585.54 421.51
  L 585.54 392.54
  A 0.99 0.98 -88.1 0 1 586.59 391.55
  Q 600.92 392.37 616.81 391.45
  A 0.94 0.93 88.4 0 0 617.69 390.51
  L 617.69 388.99
  A 0.83 0.83 0.0 0 0 616.86 388.16
  Q 599.54 388.01 583.08 388.54
  C 579.61 388.66 576.59 388.40 572.79 388.15
  A 1.31 1.31 0.0 0 0 571.40 389.46
  L 571.40 462.03
  A 1.40 1.40 0.0 0 0 572.80 463.43
  L 617.66 463.43
  A 1.48 1.48 0.0 0 0 619.14 461.95
  L 619.14 461.35
  A 1.53 1.53 0.0 0 0 617.61 459.82
  L 586.51 459.82
  A 0.92 0.91 90.0 0 1 585.60 458.90
  L 585.60 427.69
  A 1.14 1.13 -90.0 0 1 586.73 426.55
  Z
  M 686.94 389.01
  A 0.83 0.83 0.0 0 0 686.11 388.18
  L 628.56 388.18
  A 0.83 0.83 0.0 0 0 627.73 389.01
  L 627.73 390.87
  A 0.83 0.83 0.0 0 0 628.56 391.70
  L 649.41 391.70
  A 0.83 0.83 0.0 0 1 650.24 392.53
  L 650.24 462.78
  A 0.83 0.83 0.0 0 0 651.07 463.61
  L 663.56 463.61
  A 0.83 0.83 0.0 0 0 664.39 462.78
  L 664.39 392.59
  A 0.83 0.83 0.0 0 1 665.22 391.76
  L 686.11 391.76
  A 0.83 0.83 0.0 0 0 686.94 390.93
  L 686.94 389.01
  Z"
/>
<path fill="#ffffff" d="
  M 698.15 407.31
  L 698.11 407.26
  A 1.47 1.46 -41.0 0 1 698.26 405.18
  L 702.44 401.62
  A 1.53 1.53 0.0 0 0 701.67 398.95
  C 694.50 397.90 695.11 386.88 701.83 386.73
  C 706.67 386.63 708.29 390.66 708.11 394.71
  Q 707.73 402.90 700.42 407.63
  A 1.75 1.74 52.9 0 1 698.15 407.31
  Z"
/>
<path fill="#ffffff" d="
  M 541.14 425.35
  A 0.56 0.56 0.0 0 1 541.70 424.79
  L 553.96 424.79
  A 0.69 0.68 -6.3 0 1 554.63 425.32
  Q 555.09 427.38 555.06 429.00
  C 554.85 439.50 554.21 452.29 555.88 461.52
  A 1.61 1.61 0.0 0 1 553.04 462.81
  L 550.44 459.53
  A 1.21 1.20 55.7 0 0 548.90 459.23
  C 543.60 462.29 540.70 463.12 533.54 464.29
  C 526.38 465.46 519.48 463.97 512.57 461.13
  Q 510.95 460.47 506.26 456.33
  Q 502.36 452.89 500.56 450.45
  C 494.77 442.64 491.88 431.25 492.90 421.47
  Q 494.98 401.47 512.10 391.12
  Q 512.74 390.74 518.92 388.49
  C 528.55 384.98 541.92 387.31 548.48 395.43
  A 1.75 1.74 -41.9 0 1 548.35 397.76
  L 547.00 399.12
  A 1.37 1.37 0.0 0 1 544.99 399.04
  Q 542.06 395.58 541.32 395.00
  C 535.08 390.21 524.92 388.65 519.04 395.04
  C 513.99 400.53 510.88 404.82 509.67 412.39
  Q 506.95 429.46 510.50 443.25
  Q 512.02 449.14 517.09 455.19
  C 523.21 462.50 532.28 462.92 540.34 458.31
  A 1.60 1.59 -15.0 0 0 541.14 456.93
  L 541.14 425.35
  Z"
/>
<path fill="#ffffff" d="
  M 797.13 398.86
  Q 788.90 388.90 774.47 391.58
  Q 771.34 392.16 770.34 393.07
  Q 766.97 396.12 766.41 401.78
  C 765.60 410.01 772.60 414.86 779.85 417.30
  C 788.69 420.28 797.42 424.71 802.18 432.57
  C 805.28 437.69 805.58 446.85 802.37 452.24
  Q 800.53 455.33 796.90 458.54
  C 792.20 462.71 786.83 464.00 780.32 464.57
  Q 766.68 465.75 756.67 456.64
  Q 755.23 455.32 754.35 452.86
  A 1.16 1.15 -36.3 0 1 754.53 451.75
  Q 755.61 450.41 757.28 450.06
  A 0.87 0.87 0.0 0 1 758.17 450.43
  Q 759.20 451.99 759.73 452.85
  C 762.53 457.34 767.02 460.06 772.20 460.69
  C 778.65 461.47 784.44 461.42 789.51 457.24
  Q 793.12 454.26 793.20 448.72
  C 793.32 441.15 788.63 437.32 782.25 434.77
  Q 775.27 431.98 768.97 428.54
  C 764.81 426.27 762.68 425.22 760.23 422.01
  Q 757.53 418.47 756.14 415.04
  C 753.14 407.60 756.39 398.81 761.97 393.40
  Q 765.28 390.19 771.20 388.39
  Q 784.74 384.27 796.48 392.47
  Q 798.51 393.89 800.07 396.47
  A 1.03 1.03 0.0 0 1 800.15 397.37
  Q 799.49 399.16 798.21 399.30
  A 1.23 1.23 0.0 0 1 797.13 398.86
  Z"
/>
<path fill="#ffffff" d="
  M 401.87 391.58
  L 367.41 391.58
  A 1.49 1.49 0.0 0 1 365.93 390.23
  L 365.88 389.80
  A 1.76 1.76 0.0 0 1 367.69 387.89
  Q 389.68 388.54 416.43 387.85
  Q 417.73 387.82 418.31 388.34
  A 2.51 2.15 -59.4 0 1 418.79 391.04
  C 417.14 394.97 413.68 399.46 411.72 403.00
  C 407.22 411.19 404.08 416.05 400.15 423.42
  C 397.50 428.39 394.44 432.76 391.66 437.86
  Q 386.84 446.72 382.11 454.87
  Q 381.49 455.94 380.32 459.08
  A 0.71 0.70 -79.9 0 0 380.98 460.03
  L 418.40 460.03
  A 1.33 1.33 0.0 0 1 419.73 461.36
  L 419.73 462.08
  A 1.34 1.34 0.0 0 1 418.39 463.42
  L 364.14 463.42
  A 1.32 1.31 -81.1 0 1 362.89 461.70
  Q 363.84 458.73 365.60 455.86
  Q 367.89 452.10 373.62 441.60
  C 376.57 436.23 380.14 431.02 383.03 425.18
  Q 384.10 423.02 386.79 418.60
  Q 398.59 399.23 401.34 394.83
  Q 402.19 393.48 402.38 392.17
  A 0.52 0.51 4.3 0 0 401.87 391.58
  Z"
/>
<rect fill="#ffffff" x="-6.91" y="-37.86" transform="translate(730.97,425.72) rotate(-0.1)" width="13.82" height="75.72" rx="1.21"/>
<path fill="#ffffff" d="
  M 476.17 423.26
  L 476.17 425.37
  A 0.84 0.84 0.0 0 1 475.33 426.21
  L 449.09 426.21
  A 0.84 0.84 0.0 0 0 448.25 427.05
  L 448.25 459.07
  A 0.84 0.84 0.0 0 0 449.09 459.91
  L 481.15 459.91
  A 0.84 0.84 0.0 0 1 481.99 460.75
  L 481.99 462.66
  A 0.84 0.84 0.0 0 1 481.15 463.50
  L 435.54 463.50
  A 0.84 0.84 0.0 0 1 434.70 462.66
  L 434.70 389.12
  A 0.84 0.84 0.0 0 1 435.54 388.28
  L 480.54 388.28
  A 0.84 0.84 0.0 0 1 481.38 389.12
  L 481.38 390.95
  A 0.84 0.84 0.0 0 1 480.54 391.79
  L 448.90 391.79
  A 0.84 0.84 0.0 0 0 448.06 392.63
  L 448.06 421.58
  A 0.84 0.84 0.0 0 0 448.90 422.42
  L 475.33 422.42
  A 0.84 0.84 0.0 0 1 476.17 423.26
  Z"
/>
<path fill="#ffffff" d="
  M 586.73 426.55
  A 1.14 1.13 -90.0 0 0 585.60 427.69
  L 585.60 458.90
  A 0.92 0.91 -90.0 0 0 586.51 459.82
  L 617.61 459.82
  A 1.53 1.53 0.0 0 1 619.14 461.35
  L 619.14 461.95
  A 1.48 1.48 0.0 0 1 617.66 463.43
  L 572.80 463.43
  A 1.40 1.40 0.0 0 1 571.40 462.03
  L 571.40 389.46
  A 1.31 1.31 0.0 0 1 572.79 388.15
  C 576.59 388.40 579.61 388.66 583.08 388.54
  Q 599.54 388.01 616.86 388.16
  A 0.83 0.83 0.0 0 1 617.69 388.99
  L 617.69 390.51
  A 0.94 0.93 88.4 0 1 616.81 391.45
  Q 600.92 392.37 586.59 391.55
  A 0.99 0.98 -88.1 0 0 585.54 392.54
  L 585.54 421.51
  A 1.03 1.03 0.0 0 0 586.57 422.54
  L 612.20 422.54
  A 0.81 0.81 0.0 0 1 613.01 423.35
  L 613.01 425.56
  A 0.99 0.99 0.0 0 1 612.02 426.55
  L 586.73 426.55
  Z"
/>
<path fill="#ffffff" d="
  M 686.94 389.01
  L 686.94 390.93
  A 0.83 0.83 0.0 0 1 686.11 391.76
  L 665.22 391.76
  A 0.83 0.83 0.0 0 0 664.39 392.59
  L 664.39 462.78
  A 0.83 0.83 0.0 0 1 663.56 463.61
  L 651.07 463.61
  A 0.83 0.83 0.0 0 1 650.24 462.78
  L 650.24 392.53
  A 0.83 0.83 0.0 0 0 649.41 391.70
  L 628.56 391.70
  A 0.83 0.83 0.0 0 1 627.73 390.87
  L 627.73 389.01
  A 0.83 0.83 0.0 0 1 628.56 388.18
  L 686.11 388.18
  A 0.83 0.83 0.0 0 1 686.94 389.01
  Z"
/>
</svg>
